<svg xmlns="http://www.w3.org/2000/svg" viewBox="19.2 16.8 609.29 305.2" width="670" height="380" role="img" aria-labelledby="chart-title chart-desc">
<title id="chart-title">Execution time by phase, single GPU vs. four GPUs</title>
<desc id="chart-desc">Bars in each row are scaled to that row's own maximum, since phases span very different time scales. Setting up the problem: single GPU 0.028903 s, multi-GPU 0.159160 s, multi-GPU is 5.5x slower. Allocating device variables: single GPU 0.191964 s, multi-GPU 0.108678 s, multi-GPU is 1.8x faster. Copying host → device(s): single GPU 0.002340 s, multi-GPU 0.001864 s, multi-GPU is 1.3x faster. Executing kernel(s): single GPU 0.004720 s, multi-GPU 0.000048 s, multi-GPU is 98.3x faster. Copying device(s) → host: single GPU 0.003046 s, multi-GPU 0.001845 s, multi-GPU is 1.7x faster.</desc>
<rect width="670" height="380" fill="none"/>
<rect x="20" y="18" width="12" height="12" rx="2" fill="#767C69"/>
<text x="38" y="28" font-family="IBM Plex Mono, monospace" font-size="12" fill="#A3A996">Single GPU</text>
<rect x="150" y="18" width="12" height="12" rx="2" fill="#76B900"/>
<text x="168" y="28" font-family="IBM Plex Mono, monospace" font-size="12" fill="#A3A996">Multi-GPU</text>
<text x="20" y="83.0" font-family="IBM Plex Sans, sans-serif" font-size="13" fill="#E9ECE3">Setting up the problem</text>
<rect x="260" y="60" width="54.5" height="16" rx="3" fill="#767C69"/>
<text x="322.5" y="72" font-family="IBM Plex Mono, monospace" font-size="11" fill="#A3A996">0.028903 s</text>
<rect x="260" y="82" width="300.0" height="16" rx="3" fill="#76B900"/>
<text x="568.0" y="94" font-family="IBM Plex Mono, monospace" font-size="11" fill="#A3A996">0.159160 s</text>
<text x="20" y="139.0" font-family="IBM Plex Sans, sans-serif" font-size="13" fill="#E9ECE3">Allocating device variables</text>
<rect x="260" y="116" width="300.0" height="16" rx="3" fill="#767C69"/>
<text x="568.0" y="128" font-family="IBM Plex Mono, monospace" font-size="11" fill="#A3A996">0.191964 s</text>
<rect x="260" y="138" width="169.8" height="16" rx="3" fill="#76B900"/>
<text x="437.8" y="150" font-family="IBM Plex Mono, monospace" font-size="11" fill="#A3A996">0.108678 s</text>
<text x="20" y="195.0" font-family="IBM Plex Sans, sans-serif" font-size="13" fill="#E9ECE3">Copying host → device(s)</text>
<rect x="260" y="172" width="300.0" height="16" rx="3" fill="#767C69"/>
<text x="568.0" y="184" font-family="IBM Plex Mono, monospace" font-size="11" fill="#A3A996">0.002340 s</text>
<rect x="260" y="194" width="239.0" height="16" rx="3" fill="#76B900"/>
<text x="507.0" y="206" font-family="IBM Plex Mono, monospace" font-size="11" fill="#A3A996">0.001864 s</text>
<text x="20" y="251.0" font-family="IBM Plex Sans, sans-serif" font-size="13" fill="#E9ECE3">Executing kernel(s)</text>
<rect x="260" y="228" width="300.0" height="16" rx="3" fill="#767C69"/>
<text x="568.0" y="240" font-family="IBM Plex Mono, monospace" font-size="11" fill="#A3A996">0.004720 s</text>
<rect x="260" y="250" width="3.1" height="16" rx="3" fill="#76B900"/>
<text x="271.1" y="262" font-family="IBM Plex Mono, monospace" font-size="11" fill="#A3A996">0.000048 s</text>
<text x="20" y="307.0" font-family="IBM Plex Sans, sans-serif" font-size="13" fill="#E9ECE3">Copying device(s) → host</text>
<rect x="260" y="284" width="300.0" height="16" rx="3" fill="#767C69"/>
<text x="568.0" y="296" font-family="IBM Plex Mono, monospace" font-size="11" fill="#A3A996">0.003046 s</text>
<rect x="260" y="306" width="181.7" height="16" rx="3" fill="#76B900"/>
<text x="449.7" y="318" font-family="IBM Plex Mono, monospace" font-size="11" fill="#A3A996">0.001845 s</text>
</svg>